<?xml version="1.0" encoding="utf-8"?>
<!-- Generator: Adobe Illustrator 26.5.0, SVG Export Plug-In . SVG Version: 6.00 Build 0)  -->
<svg version="1.1" id="Layer_1" xmlns="http://www.w3.org/2000/svg" xmlns:xlink="http://www.w3.org/1999/xlink" x="0px" y="0px"
	 viewBox="0 0 24 12" style="enable-background:new 0 0 24 12;" xml:space="preserve">
<style type="text/css">
	.st0{fill:#FD6A00;}
</style>
<path class="st0" d="M23.8,7.2c0,0-0.1,0-0.1,0c-0.1,0-0.1,0-0.2,0c-0.1,0-0.1,0.1-0.1,0.1c-0.1,0.1-0.1,0.3-0.2,0.4
	c-0.1,0.2-0.2,0.4-0.4,0.5c-0.1,0.2-0.3,0.3-0.4,0.4c0,0-0.1,0-0.1,0c0,0,0-0.1,0-0.1c0-0.4,0.1-0.8,0.1-1.1c0-0.2,0-0.3,0.1-0.5
	c0-0.2,0.1-0.5,0.1-0.7l0.2-1.8c0-0.1,0-0.4-0.1-0.5c-0.1-0.1-0.1-0.1-0.2-0.1c-0.1,0-0.2,0-0.3,0.1c-0.2,0.2-0.3,0.5-0.4,0.8
	c-0.1,0.6-0.2,1.2-0.5,1.8c-0.1,0.1-0.1,0.2-0.2,0.3c0,0.1-0.1,0.1-0.2,0.2c-0.1,0-0.2,0.1-0.2,0.1c-0.1,0-0.2-0.1-0.2-0.2
	c0-0.1-0.1-0.2-0.1-0.3c0-0.5,0.1-1.1,0.2-1.6c0-0.1,0.1-0.3,0.1-0.4c0-0.2,0-0.4-0.1-0.5c-0.1-0.1-0.3-0.2-0.5-0.1
	c-0.2,0.1-0.3,0.2-0.4,0.4c-0.2,0.5-0.2,0.9-0.3,1.4c0,0.3-0.1,0.6-0.3,0.9c-0.2,0.3-0.4,0.5-0.6,0.7c-0.1,0.1-0.2,0.1-0.3,0.1
	c-0.1,0-0.2-0.1-0.3-0.2c-0.1-0.1-0.1-0.2-0.1-0.3c0-0.2,0-0.4,0-0.6c0-0.2,0-0.4,0-0.7c0.1-0.4,0.7-1.9,0.8-2.3
	c0.1-0.4,0.3-0.8,0.4-1.2C19,1.6,19,1.2,19,0.8c0-0.3-0.1-0.6-0.3-0.7c-0.2-0.1-0.4-0.1-0.6,0c-0.2,0.1-0.4,0.2-0.5,0.4
	c-0.1,0.2-0.2,0.4-0.2,0.6c-0.1,0.4-0.2,0.9-0.3,1.3c-0.1,0.4-0.1,0.8-0.2,1.3c-0.1,0.4-0.2,1.6-0.3,1.9c-0.1,0.3-0.2,0.5-0.3,0.8
	c-0.1,0.3-0.3,0.5-0.4,0.8c0,0.1-0.1,0.2-0.2,0.2c-0.1,0.1-0.2,0.1-0.3,0c-0.1,0-0.1-0.2-0.2-0.3c-0.1-0.4,0-0.9,0.1-1.3
	c0.1-0.4,0.4-2.4,0.5-2.9c0.1-0.5,0.2-1.1,0.3-1.6c0-0.4,0.1-0.9-0.2-1.2C16,0,15.8,0,15.6,0c-0.2,0-0.3,0.2-0.4,0.3
	c-0.1,0.1-0.2,0.3-0.3,0.5c-0.1,0.3-0.2,0.6-0.3,0.9l0,0.1c-0.1,0.4-0.1,0.8-0.2,1.2c0,0.2,0,0.4-0.1,0.6c0,0.1,0,0.2,0,0.3
	c0,0.1,0,0.2,0,0.2c0,0,0,0-0.1,0.1c-0.1,0.1-0.2,0.1-0.3,0.1c-0.6,0-1,0.3-1.4,0.8c-0.2,0.3-0.3,0.5-0.4,0.8c0,0,0,0.1-0.1,0.2
	c-0.1,0.1-0.1,0.3-0.2,0.5c-0.1,0.2-0.2,0.3-0.3,0.5c-0.1,0.1-0.2,0.3-0.4,0.4c-0.1,0.1-0.3,0.2-0.5,0.3c-0.2,0-0.4,0-0.5-0.2
	c-0.1-0.2-0.2-0.3-0.2-0.5c0-0.1,0-0.1,0-0.2c0.1-0.1,0.1-0.1,0.2-0.1c0.6-0.1,1.1-0.4,1.4-1c0.1-0.3,0.2-0.7,0.1-1
	c0-0.2-0.1-0.3-0.2-0.5c-0.1-0.1-0.2-0.3-0.4-0.3c-0.3-0.1-0.7-0.1-1,0c-0.6,0.2-1,0.7-1.1,1.6l0,0.1C9,6,8.8,6.5,8.5,6.8
	C8.4,6.9,8.2,7,8.1,7c0,0-0.1,0-0.1-0.1c-0.1-0.2,0-0.5,0.1-1c0-0.1,0.1-0.2,0.1-0.4c0-0.2,0-0.3-0.1-0.5C8.1,4.9,7.9,4.8,7.8,4.7
	C7.6,4.6,7.5,4.6,7.3,4.6h0c0,0-0.1,0-0.2,0C7,4.6,7,4.6,7,4.5c0-0.1,0-0.2,0-0.2c0,0,0,0,0-0.1C7,4,7,3.9,6.8,3.8
	c-0.1-0.1-0.3-0.1-0.5,0C6.2,3.8,6.1,3.9,6,4.1C5.9,4.2,5.9,4.4,5.9,4.6c0,0.1,0.1,0.3,0,0.5C5.9,5.3,5.7,5.6,5.6,5.8
	c0,0.1-0.1,0.1-0.1,0.2C5.3,6.3,5,6.5,4.7,6.8C4.4,7.1,3.9,7.4,3.5,7.5C2.8,7.6,2,7.4,1.6,6.7C1.4,6.3,1.3,5.9,1.3,5.5
	C1.2,4.6,1.3,3.7,1.7,2.9C2,2.2,2.5,1.4,3.4,1.3c0.4,0,0.8,0.1,0.9,0.4c0.1,0.2,0.1,0.5,0,0.8C4.2,2.7,4.1,3,4.1,3.2
	c0,0.3,0.1,0.5,0.4,0.6C4.7,3.9,5,3.8,5.1,3.5c0.1-0.2,0.2-0.5,0.2-0.7C5.5,2.3,5.7,1.7,6,1.2C6.2,1,6.3,0.7,6.3,0.5
	c0-0.2-0.2-0.4-0.4-0.4C5.7,0,5.5,0,5.4,0.2C5.3,0.3,5.2,0.6,5,0.6C4.8,0.7,4.7,0.6,4.5,0.5c-0.6-0.3-1.3-0.3-2,0
	C1.9,0.7,1.4,1.2,1,1.7C0.5,2.5,0.1,3.5,0,4.5c0,0.3,0,0.7,0,1c0,0.5,0.1,0.9,0.2,1.2c0.1,0.4,0.3,0.8,0.5,1.1
	C1,8.2,1.4,8.4,1.7,8.6c0.4,0.1,0.8,0.2,1.2,0.2c0.4,0,0.8-0.1,1.2-0.3c0.4-0.2,0.7-0.4,1-0.7C5.4,7.5,5.7,7.3,6,6.9
	c0.2-0.2,0.3-0.5,0.4-0.7C6.5,6.1,6.5,6,6.6,5.8c0-0.1,0.1-0.2,0.2-0.3c0.1,0,0.2,0,0.2,0c0.1,0,0.1,0.1,0.1,0.1c0,0.1,0,0.2,0,0.3
	v0c0,0.1-0.1,0.2-0.1,0.3C6.9,6.8,6.8,7.2,6.9,7.6c0,0.2,0.1,0.4,0.2,0.5c0.1,0.1,0.3,0.2,0.5,0.3c0.2,0,0.5,0,0.7-0.1
	C8.5,8.1,8.6,8.1,8.7,8c0.1-0.1,0.1-0.1,0.2-0.2C9,7.7,9,7.6,9.1,7.6c0,0,0.1,0,0.1,0.1c0,0,0,0.1,0.1,0.1c0.2,0.5,0.8,0.8,1.3,0.8
	h0.1c0.3,0,0.6-0.1,0.8-0.2c0.3-0.1,0.5-0.3,0.7-0.6c0,0,0,0,0.1,0c0,0,0.1,0,0.1,0c0,0,0,0.1,0,0.1c0.1,0.3,0.5,0.6,0.8,0.7
	c0.4,0.1,0.7-0.1,1-0.4c0.1-0.1,0.1-0.1,0.2-0.2c0.1,0,0.1-0.1,0.2,0c0.1,0,0.1,0.2,0.2,0.3c0.1,0.2,0.4,0.4,0.6,0.4
	c0.3,0,0.6-0.1,0.8-0.3c0.2-0.2,0.4-0.4,0.5-0.6c0,0,0.1-0.1,0.1-0.1c0,0,0.1,0,0.1,0c0,0,0,0.1,0.1,0.1c0.2,0.4,0.6,0.7,1,0.6
	c0.4,0,0.8-0.2,1.1-0.5c0.1-0.1,0.2-0.2,0.3-0.2c0.1,0,0.2,0.1,0.3,0.2c0.1,0.1,0.1,0.2,0.2,0.3c0.2,0.1,0.4,0.2,0.5,0.1
	c0.2,0,0.3-0.2,0.5-0.3C21,7.9,21,7.8,21.1,7.7c0.1-0.1,0.1,0,0.1,0.1c0,0.1,0,0.2,0,0.4c0,0.2-0.1,0.5-0.1,0.7c0,0.1,0,0.1-0.1,0.2
	c-0.1,0.1-0.2,0.1-0.3,0.1c-0.1,0-0.2,0-0.3,0l-0.1,0c-0.2,0-0.4,0-0.6,0h-0.2c-0.4,0-0.7,0-1,0.2c-0.5,0.2-0.9,0.6-1,1
	c-0.1,0.2-0.1,0.4-0.1,0.6c0,0.2,0.1,0.4,0.3,0.6c0.3,0.3,0.7,0.5,1.1,0.5c0.4,0,0.9-0.1,1.3-0.3c0.8-0.4,1.5-1.1,1.7-1.9
	c0,0,0,0,0,0c0.3-0.1,0.6-0.2,0.8-0.4c0.2-0.2,0.5-0.4,0.6-0.6c0.1-0.1,0.2-0.2,0.3-0.4c0.1-0.1,0.1-0.3,0.2-0.4
	C23.9,7.8,24,7.7,24,7.6c0-0.1,0-0.2,0-0.3C23.9,7.2,23.9,7.2,23.8,7.2 M10.1,5.5c0-0.1,0-0.1,0.1-0.2c0.1-0.2,0.1-0.4,0.3-0.5
	c0,0,0.1-0.1,0.1-0.1c0.1,0,0.1-0.1,0.2,0c0.1,0,0.2,0.1,0.2,0.2c0,0.2,0,0.4-0.1,0.6c-0.1,0.2-0.2,0.3-0.3,0.4
	c-0.1,0-0.1,0.1-0.2,0.1c0,0-0.1,0-0.1,0h0c-0.1,0-0.1,0-0.1-0.1C10.1,5.8,10.1,5.6,10.1,5.5 M14.4,5.3c0,0.1,0,0.1,0,0.2
	c0,0.3,0,0.5,0,0.8c0,0.2,0,0.3,0,0.4c-0.1,0.3-0.3,0.5-0.6,0.6c-0.1,0-0.2,0.1-0.2,0.1c0,0,0,0-0.1,0c-0.1,0-0.2-0.1-0.3-0.2
	c0-0.1-0.1-0.2-0.1-0.3c-0.1-0.4-0.1-0.8,0.1-1.1c0.1-0.2,0.2-0.4,0.4-0.6c0.2-0.1,0.4-0.2,0.6-0.2c0.1,0,0.1,0,0.2,0.1
	C14.4,5.2,14.4,5.2,14.4,5.3C14.4,5.3,14.4,5.3,14.4,5.3 M20.9,10c0,0-0.1,0.1-0.1,0.1c0,0.1-0.1,0.2-0.2,0.2
	c-0.1,0.1-0.2,0.2-0.3,0.3c-0.2,0.2-0.5,0.3-0.8,0.4c-0.2,0-0.3,0.1-0.5,0.1h0c-0.2,0-0.4-0.1-0.5-0.2c-0.1-0.1-0.1-0.2-0.2-0.2
	c0-0.1,0-0.2,0-0.3c0.1-0.2,0.2-0.3,0.4-0.4c0.3-0.2,0.7-0.2,1-0.2c0.1,0,0.3,0,0.4,0c0.1,0,0.2,0,0.3,0c0.1,0,0.1,0,0.2,0
	C20.7,9.9,20.8,9.9,20.9,10C20.9,9.9,20.9,10,20.9,10"/>
</svg>
